<mxfile host="app.diagrams.net" modified="2024-02-02T02:54:39.525Z" agent="Mozilla/5.0 (Windows NT 10.0; Win64; x64) AppleWebKit/537.36 (KHTML, like Gecko) Chrome/121.0.0.0 Safari/537.36" version="23.1.1" etag="m2p0LSbDcY1cf4Nf8zor" type="github">
  <diagram name="Halaman-1" id="TB5klPrPt9AWWzykuQ6T">
    <mxGraphModel>
      <root>
        <mxCell id="0" />
        <mxCell id="1" parent="0" />
      </root>
    </mxGraphModel>
  </diagram>
</mxfile>
